<svg xmlns="http://www.w3.org/2000/svg" id="Capa_2" data-name="Capa 2" viewBox="0 0 337.74 154.75"><defs><style>      .cls-1 {        fill: #fbb734;      }      .cls-2 {        fill: #fff;      }    </style></defs><g id="Design"><g><g><path class="cls-1" d="M230.24,33.59l-10.34,25.51h0s-.14.35-.14.35c-.61,1.46-1.48,2.37-2.45,2.37s-1.84-.91-2.45-2.37l-.14-.35h0s-10.52-25.3-10.52-25.3L217.3,0l12.94,33.59Z"></path><path class="cls-2" d="M40.2,32.93c15.9,0,33.12,8.66,36.08,29.17h-19.3c-2.74-7.79-8.55-11.29-16.78-11.29-11.51,0-19.08,8.66-19.08,21.38,0,11.29,7.46,21.17,19.08,21.27,8.33,0,15.02-4.17,17.11-12.39h19.3c-2.85,21.71-20.07,30.27-36.41,30.27-19.52.11-39.26-13.05-39.37-39.15.11-26.1,19.85-39.26,39.37-39.26"></path><polygon class="cls-2" points="159.39 33.59 166.41 33.59 166.41 110.57 146.34 110.57 146.34 76.36 130.01 93.46 127.81 93.46 111.58 76.36 111.58 110.57 91.51 110.57 91.51 33.59 98.75 33.59 128.8 66.93 159.39 33.59"></polygon><polygon class="cls-2" points="217.07 77.23 217.61 77.23 235.16 33.81 254.02 33.81 254.02 36.77 221.45 111.45 213.12 111.45 180.22 36.77 180.22 33.81 199.08 33.81 217.07 77.23"></polygon><path class="cls-2" d="M300.18,32.93c15.9,0,33.12,8.66,36.08,29.17h-19.3c-2.74-7.79-8.55-11.29-16.78-11.29-11.51,0-19.08,8.66-19.08,21.38,0,11.29,7.46,21.17,19.08,21.27,8.33,0,15.02-4.17,17.11-12.39h19.3c-2.85,21.71-20.07,30.27-36.41,30.27-19.52.11-39.26-13.05-39.37-39.15.11-26.1,19.85-39.26,39.37-39.26"></path></g><g><path class="cls-2" d="M9.98,143.71v6.09h-3.2v-6.04l-6.78-11.21h3.42l5.05,8.4,5.1-8.4h3.15l-6.75,11.16Z"></path><path class="cls-2" d="M17.69,143.22c0-3.94,2.96-6.73,7-6.73s7.02,2.78,7.02,6.73-2.93,6.75-7.02,6.75-7-2.81-7-6.75ZM28.6,143.22c0-2.51-1.68-4.11-3.92-4.11s-3.89,1.6-3.89,4.11,1.68,4.11,3.89,4.11,3.92-1.6,3.92-4.11Z"></path><path class="cls-2" d="M49.13,136.64v13.16h-2.93v-1.68c-.99,1.21-2.54,1.85-4.24,1.85-3.38,0-5.67-1.85-5.67-5.81v-7.51h3.08v7.1c0,2.39,1.13,3.52,3.08,3.52,2.14,0,3.6-1.33,3.6-3.97v-6.65h3.08Z"></path><path class="cls-2" d="M62.51,136.49v2.93c-.27-.05-.49-.07-.71-.07-2.34,0-3.82,1.38-3.82,4.07v6.38h-3.08v-13.16h2.93v1.92c.89-1.38,2.49-2.07,4.68-2.07Z"></path><path class="cls-2" d="M74.33,147.98l1.11-2.49c1.38,1.11,3.57,1.9,5.69,1.9,2.69,0,3.82-.96,3.82-2.24,0-3.72-10.25-1.28-10.25-7.69,0-2.78,2.22-5.15,6.95-5.15,2.07,0,4.24.54,5.74,1.53l-1.01,2.49c-1.55-.91-3.25-1.36-4.75-1.36-2.66,0-3.74,1.03-3.74,2.34,0,3.67,10.22,1.28,10.22,7.61,0,2.76-2.24,5.12-6.97,5.12-2.69,0-5.37-.84-6.8-2.07Z"></path><path class="cls-2" d="M91.63,143.22c0-3.94,2.96-6.73,7.12-6.73,2.56,0,4.61,1.06,5.62,3.05l-2.37,1.38c-.79-1.26-1.97-1.82-3.28-1.82-2.27,0-3.99,1.58-3.99,4.11s1.72,4.11,3.99,4.11c1.31,0,2.49-.57,3.28-1.82l2.37,1.38c-1.01,1.97-3.05,3.08-5.62,3.08-4.16,0-7.12-2.81-7.12-6.75Z"></path><path class="cls-2" d="M121.59,142.26v7.54h-3.08v-7.14c0-2.34-1.16-3.47-3.13-3.47-2.19,0-3.67,1.33-3.67,3.97v6.65h-3.08v-18.28h3.08v6.65c1.01-1.08,2.56-1.68,4.39-1.68,3.15,0,5.49,1.8,5.49,5.76Z"></path><path class="cls-2" d="M126.27,143.22c0-3.94,2.96-6.73,7-6.73s7.02,2.78,7.02,6.73-2.93,6.75-7.02,6.75-7-2.81-7-6.75ZM137.19,143.22c0-2.51-1.68-4.11-3.92-4.11s-3.89,1.6-3.89,4.11,1.68,4.11,3.89,4.11,3.92-1.6,3.92-4.11Z"></path><path class="cls-2" d="M143.89,143.22c0-3.94,2.96-6.73,7-6.73s7.02,2.78,7.02,6.73-2.93,6.75-7.02,6.75-7-2.81-7-6.75ZM154.8,143.22c0-2.51-1.68-4.11-3.92-4.11s-3.89,1.6-3.89,4.11,1.68,4.11,3.89,4.11,3.92-1.6,3.92-4.11Z"></path><path class="cls-2" d="M162.59,131.52h3.08v18.28h-3.08v-18.28Z"></path><path class="cls-2" d="M178.87,143.22c0-3.94,2.96-6.73,7-6.73s7.02,2.78,7.02,6.73-2.93,6.75-7.02,6.75-7-2.81-7-6.75ZM189.79,143.22c0-2.51-1.68-4.11-3.92-4.11s-3.89,1.6-3.89,4.11,1.68,4.11,3.89,4.11,3.92-1.6,3.92-4.11Z"></path><path class="cls-2" d="M200.98,135.95v.79h3.62v2.46h-3.52v10.59h-3.08v-10.59h-2.17v-2.46h2.17v-.84c0-2.76,1.65-4.56,4.71-4.56,1.06,0,2.09.22,2.78.71l-.86,2.32c-.47-.32-1.06-.54-1.7-.54-1.28,0-1.95.71-1.95,2.12Z"></path><path class="cls-2" d="M231.65,138.69c0,3.79-2.81,6.13-7.34,6.13h-3.89v4.98h-3.2v-17.25h7.1c4.53,0,7.34,2.32,7.34,6.13ZM228.42,138.69c0-2.17-1.45-3.42-4.26-3.42h-3.74v6.85h3.74c2.81,0,4.26-1.26,4.26-3.42Z"></path><path class="cls-2" d="M243.77,136.49v2.93c-.27-.05-.49-.07-.71-.07-2.34,0-3.82,1.38-3.82,4.07v6.38h-3.08v-13.16h2.93v1.92c.89-1.38,2.49-2.07,4.68-2.07Z"></path><path class="cls-2" d="M246.9,143.22c0-3.94,2.96-6.73,7-6.73s7.02,2.78,7.02,6.73-2.93,6.75-7.02,6.75-7-2.81-7-6.75ZM257.82,143.22c0-2.51-1.68-4.11-3.92-4.11s-3.89,1.6-3.89,4.11,1.68,4.11,3.89,4.11,3.92-1.6,3.92-4.11Z"></path><path class="cls-2" d="M278.66,136.64v11.16c0,4.78-2.49,6.95-7.1,6.95-2.46,0-4.9-.64-6.41-1.87l1.38-2.32c1.16.96,3.03,1.58,4.85,1.58,2.91,0,4.19-1.33,4.19-3.99v-.69c-1.08,1.18-2.64,1.75-4.41,1.75-3.77,0-6.65-2.56-6.65-6.38s2.88-6.33,6.65-6.33c1.85,0,3.47.59,4.56,1.9v-1.75h2.93ZM275.63,142.83c0-2.22-1.68-3.72-3.99-3.72s-4.02,1.5-4.02,3.72,1.68,3.77,4.02,3.77,3.99-1.53,3.99-3.77Z"></path><path class="cls-2" d="M292.04,136.49v2.93c-.27-.05-.49-.07-.71-.07-2.34,0-3.82,1.38-3.82,4.07v6.38h-3.08v-13.16h2.93v1.92c.89-1.38,2.49-2.07,4.68-2.07Z"></path><path class="cls-2" d="M308.57,144.21h-10.32c.37,1.92,1.97,3.15,4.26,3.15,1.48,0,2.64-.47,3.57-1.43l1.65,1.9c-1.18,1.4-3.03,2.14-5.3,2.14-4.41,0-7.27-2.83-7.27-6.75s2.88-6.73,6.8-6.73,6.65,2.69,6.65,6.8c0,.25-.02.62-.05.91ZM298.22,142.16h7.47c-.25-1.9-1.7-3.2-3.72-3.2s-3.45,1.28-3.74,3.2Z"></path><path class="cls-2" d="M311.8,148.49l1.18-2.34c1.16.76,2.93,1.31,4.58,1.31,1.95,0,2.76-.54,2.76-1.45,0-2.51-8.13-.15-8.13-5.4,0-2.49,2.24-4.11,5.79-4.11,1.75,0,3.74.42,4.93,1.13l-1.18,2.34c-1.26-.74-2.51-.99-3.77-.99-1.87,0-2.76.62-2.76,1.48,0,2.66,8.13.3,8.13,5.44,0,2.46-2.27,4.07-5.96,4.07-2.19,0-4.39-.64-5.57-1.48Z"></path><path class="cls-2" d="M326.21,148.49l1.18-2.34c1.16.76,2.93,1.31,4.58,1.31,1.95,0,2.76-.54,2.76-1.45,0-2.51-8.13-.15-8.13-5.4,0-2.49,2.24-4.11,5.79-4.11,1.75,0,3.74.42,4.93,1.13l-1.18,2.34c-1.26-.74-2.51-.99-3.77-.99-1.87,0-2.76.62-2.76,1.48,0,2.66,8.13.3,8.13,5.44,0,2.46-2.27,4.07-5.96,4.07-2.19,0-4.39-.64-5.57-1.48Z"></path></g></g></g></svg>