<?xml version="1.0" encoding="UTF-8"?>
<svg id="Capa_2" xmlns="http://www.w3.org/2000/svg" version="1.1" viewBox="0 0 337.7 154.8">
  <!-- Generator: Adobe Illustrator 29.6.1, SVG Export Plug-In . SVG Version: 2.1.1 Build 9)  -->
  <defs>
    <style>
      .st0 {
        fill: #fbb734;
      }

      .st1 {
        fill: #223262;
      }
    </style>
  </defs>
  <g id="Design">
    <g>
      <g>
        <path class="st0" d="M230.2,33.6l-10.3,25.5h0v.3c-.8,1.5-1.6,2.4-2.6,2.4s-1.8-.9-2.4-2.4v-.3h-.1l-10.5-25.3L217.3,0l12.9,33.6Z"/>
        <path class="st1" d="M40.2,32.9c15.9,0,33.1,8.7,36.1,29.2h-19.3c-2.7-7.8-8.5-11.3-16.8-11.3s-19.1,8.7-19.1,21.4,7.5,21.2,19.1,21.3c8.3,0,15-4.2,17.1-12.4h19.3c-2.8,21.7-20.1,30.3-36.4,30.3-19.5.1-39.3-13.1-39.4-39.2.1-26.1,19.9-39.3,39.4-39.3"/>
        <polygon class="st1" points="159.4 33.6 166.4 33.6 166.4 110.6 146.3 110.6 146.3 76.4 130 93.5 127.8 93.5 111.6 76.4 111.6 110.6 91.5 110.6 91.5 33.6 98.8 33.6 128.8 66.9 159.4 33.6"/>
        <polygon class="st1" points="217.1 77.2 217.6 77.2 235.2 33.8 254 33.8 254 36.8 221.4 111.4 213.1 111.4 180.2 36.8 180.2 33.8 199.1 33.8 217.1 77.2"/>
        <path class="st1" d="M300.2,32.9c15.9,0,33.1,8.7,36.1,29.2h-19.3c-2.7-7.8-8.5-11.3-16.8-11.3s-19.1,8.7-19.1,21.4,7.5,21.2,19.1,21.3c8.3,0,15-4.2,17.1-12.4h19.3c-2.9,21.7-20.1,30.3-36.4,30.3-19.5.1-39.3-13.1-39.4-39.2.1-26.1,19.9-39.3,39.4-39.3"/>
      </g>
      <g>
        <path class="st1" d="M10,143.7v6.1h-3.2v-6L0,132.6h3.4l5,8.4,5.1-8.4h3.1l-6.8,11.2h0Z"/>
        <path class="st1" d="M17.7,143.2c0-3.9,3-6.7,7-6.7s7,2.8,7,6.7-2.9,6.8-7,6.8-7-2.8-7-6.8ZM28.6,143.2c0-2.5-1.7-4.1-3.9-4.1s-3.9,1.6-3.9,4.1,1.7,4.1,3.9,4.1,3.9-1.6,3.9-4.1Z"/>
        <path class="st1" d="M49.1,136.6v13.2h-2.9v-1.7c-1,1.2-2.5,1.9-4.2,1.9-3.4,0-5.7-1.9-5.7-5.8v-7.5h3.1v7.1c0,2.4,1.1,3.5,3.1,3.5s3.6-1.3,3.6-4v-6.6h3.1,0Z"/>
        <path class="st1" d="M62.5,136.5v2.9c-.3,0-.5,0-.7,0-2.3,0-3.8,1.4-3.8,4.1v6.4h-3.1v-13.2h2.9v1.9c.9-1.4,2.5-2.1,4.7-2.1h0Z"/>
        <path class="st1" d="M74.3,148l1.1-2.5c1.4,1.1,3.6,1.9,5.7,1.9s3.8-1,3.8-2.2c0-3.7-10.2-1.3-10.2-7.7s2.2-5.1,6.9-5.1,4.2.5,5.7,1.5l-1,2.5c-1.6-.9-3.2-1.4-4.8-1.4-2.7,0-3.7,1-3.7,2.3,0,3.7,10.2,1.3,10.2,7.6s-2.2,5.1-7,5.1-5.4-.8-6.8-2.1h0Z"/>
        <path class="st1" d="M91.6,143.2c0-3.9,3-6.7,7.1-6.7s4.6,1.1,5.6,3.1l-2.4,1.4c-.8-1.3-2-1.8-3.3-1.8-2.3,0-4,1.6-4,4.1s1.7,4.1,4,4.1,2.5-.6,3.3-1.8l2.4,1.4c-1,2-3.1,3.1-5.6,3.1-4.2,0-7.1-2.8-7.1-6.8h0Z"/>
        <path class="st1" d="M121.6,142.3v7.5h-3.1v-7.1c0-2.3-1.2-3.5-3.1-3.5s-3.7,1.3-3.7,4v6.6h-3.1v-18.3h3.1v6.6c1-1.1,2.6-1.7,4.4-1.7,3.2,0,5.5,1.8,5.5,5.8h0Z"/>
        <path class="st1" d="M126.3,143.2c0-3.9,3-6.7,7-6.7s7,2.8,7,6.7-2.9,6.8-7,6.8-7-2.8-7-6.8ZM137.2,143.2c0-2.5-1.7-4.1-3.9-4.1s-3.9,1.6-3.9,4.1,1.7,4.1,3.9,4.1,3.9-1.6,3.9-4.1Z"/>
        <path class="st1" d="M143.9,143.2c0-3.9,3-6.7,7-6.7s7,2.8,7,6.7-2.9,6.8-7,6.8-7-2.8-7-6.8ZM154.8,143.2c0-2.5-1.7-4.1-3.9-4.1s-3.9,1.6-3.9,4.1,1.7,4.1,3.9,4.1,3.9-1.6,3.9-4.1Z"/>
        <path class="st1" d="M162.6,131.5h3.1v18.3h-3.1v-18.3Z"/>
        <path class="st1" d="M178.9,143.2c0-3.9,3-6.7,7-6.7s7,2.8,7,6.7-2.9,6.8-7,6.8-7-2.8-7-6.8ZM189.8,143.2c0-2.5-1.7-4.1-3.9-4.1s-3.9,1.6-3.9,4.1,1.7,4.1,3.9,4.1,3.9-1.6,3.9-4.1Z"/>
        <path class="st1" d="M201,135.9v.8h3.6v2.5h-3.5v10.6h-3.1v-10.6h-2.2v-2.5h2.2v-.8c0-2.8,1.6-4.6,4.7-4.6s2.1.2,2.8.7l-.9,2.3c-.5-.3-1.1-.5-1.7-.5-1.3,0-1.9.7-1.9,2.1h0Z"/>
        <path class="st1" d="M231.6,138.7c0,3.8-2.8,6.1-7.3,6.1h-3.9v5h-3.2v-17.2h7.1c4.5,0,7.3,2.3,7.3,6.1h0ZM228.4,138.7c0-2.2-1.4-3.4-4.3-3.4h-3.7v6.9h3.7c2.8,0,4.3-1.3,4.3-3.4h0Z"/>
        <path class="st1" d="M243.8,136.5v2.9c-.3,0-.5,0-.7,0-2.3,0-3.8,1.4-3.8,4.1v6.4h-3.1v-13.2h2.9v1.9c.9-1.4,2.5-2.1,4.7-2.1h0Z"/>
        <path class="st1" d="M246.9,143.2c0-3.9,3-6.7,7-6.7s7,2.8,7,6.7-2.9,6.8-7,6.8-7-2.8-7-6.8h0ZM257.8,143.2c0-2.5-1.7-4.1-3.9-4.1s-3.9,1.6-3.9,4.1,1.7,4.1,3.9,4.1,3.9-1.6,3.9-4.1Z"/>
        <path class="st1" d="M278.7,136.6v11.2c0,4.8-2.5,6.9-7.1,6.9s-4.9-.6-6.4-1.9l1.4-2.3c1.2,1,3,1.6,4.9,1.6,2.9,0,4.2-1.3,4.2-4v-.7c-1.1,1.2-2.6,1.8-4.4,1.8-3.8,0-6.6-2.6-6.6-6.4s2.9-6.3,6.6-6.3,3.5.6,4.6,1.9v-1.8h2.9ZM275.6,142.8c0-2.2-1.7-3.7-4-3.7s-4,1.5-4,3.7,1.7,3.8,4,3.8,4-1.5,4-3.8Z"/>
        <path class="st1" d="M292,136.5v2.9c-.3,0-.5,0-.7,0-2.3,0-3.8,1.4-3.8,4.1v6.4h-3.1v-13.2h2.9v1.9c.9-1.4,2.5-2.1,4.7-2.1h0Z"/>
        <path class="st1" d="M308.6,144.2h-10.3c.4,1.9,2,3.1,4.3,3.1s2.6-.5,3.6-1.4l1.6,1.9c-1.2,1.4-3,2.1-5.3,2.1-4.4,0-7.3-2.8-7.3-6.8s2.9-6.7,6.8-6.7,6.6,2.7,6.6,6.8,0,.6,0,.9h0ZM298.2,142.2h7.5c-.2-1.9-1.7-3.2-3.7-3.2s-3.5,1.3-3.7,3.2h0Z"/>
        <path class="st1" d="M311.8,148.5l1.2-2.3c1.2.8,2.9,1.3,4.6,1.3s2.8-.5,2.8-1.4c0-2.5-8.1-.1-8.1-5.4s2.2-4.1,5.8-4.1,3.7.4,4.9,1.1l-1.2,2.3c-1.3-.7-2.5-1-3.8-1-1.9,0-2.8.6-2.8,1.5,0,2.7,8.1.3,8.1,5.4s-2.3,4.1-6,4.1-4.4-.6-5.6-1.5h0Z"/>
        <path class="st1" d="M326.2,148.5l1.2-2.3c1.2.8,2.9,1.3,4.6,1.3s2.8-.5,2.8-1.4c0-2.5-8.1-.1-8.1-5.4s2.2-4.1,5.8-4.1,3.7.4,4.9,1.1l-1.2,2.3c-1.3-.7-2.5-1-3.8-1-1.9,0-2.8.6-2.8,1.5,0,2.7,8.1.3,8.1,5.4s-2.3,4.1-6,4.1-4.4-.6-5.6-1.5h0Z"/>
      </g>
    </g>
  </g>
</svg>